# xmcd
#
# Track frame offsets: 
#        150
#        37862
#        53971
#        73292
#        101138
#        115401
#        158037
#        160904
#        180005
#        201191
#        218703
#        244071
#        280734
#        302950
#        343394
#
# Disc length: 4777 seconds
#
# Revision: 1
# Processed by: cddbd v1.5.2PL0 Copyright (c) Steve Scherf et al.
# Submitted via: ExactAudioCopy v0.99pb4
#
DISCID=db12a70f
DTITLE=John Lewis and The MJQ - Four Classic Albums Plus CD2
DYEAR=1900
DGENRE=Jazz
TTITLE0=Love Me Or Leave Me
TTITLE1=I Can't Get Started
TTITLE2=Easy Living
TTITLE3=2 Degrees East, 3 Degrees West
TTITLE4=Skylark
TTITLE5=Almost Like Being In Love
TTITLE6=Norman Granz Introduction
TTITLE7=D and E Blues
TTITLE8=Now's The Time
TTITLE9='Round Midnight
TTITLE10=Midsömmer
TTITLE11=Little David's Fugue
TTITLE12=The Queen's Fancy
TTITLE13=Django
TTITLE14=Sun Dance
EXTD=
EXTT0=
EXTT1=
EXTT2=
EXTT3=
EXTT4=
EXTT5=
EXTT6=
EXTT7=
EXTT8=
EXTT9=
EXTT10=
EXTT11=
EXTT12=
EXTT13=
EXTT14=
PLAYORDER=
